<svg xmlns="http://www.w3.org/2000/svg" viewBox="20 134.98471401746298 535 305.02542888344647"><rect height="100%" width="100%" x="20" y="134.98471401746298" fill="rgba(38, 38, 38, 1)"/> <svg xmlns="http://www.w3.org/2000/svg" xmlns:xlink="http://www.w3.org/1999/xlink" version="1.1" id="Layer_1" x="90" y="204.98471401746298" viewBox="619.1398315429688 337.0973815917969 467.11016845703125 141.71923828125" xml:space="preserve" height="119.84130145807546" width="395" preserveAspectRatio="xMinYMin" enable-background="new 0 0 1366 768" style="overflow: visible;"><path d="M1086.21,476.8c-1.23,2.07-2.07,2.4-4.44,1.65c-4.02-1.28-8.04-2.55-12.05-3.88c-62.67-20.78-125.34-41.57-188.01-62.34    c-6.06-2.01-12.13-4-18.27-5.73c-8.45-2.38-16.92-1.63-25.16,0.98c-12.25,3.88-24.4,8.06-36.6,12.09    c-33.56,11.1-67.13,22.19-100.69,33.31c-4.73,1.57-9.4,3.31-14.14,4.87c-20.89,6.87-41.79,13.7-62.69,20.54    c-0.57,0.18-1.15,0.37-1.73,0.43c-1.73,0.2-2.81-0.55-3.2-2.16c-0.35-1.47,0.32-2.62,1.99-3.18c10.02-3.35,20.05-6.68,30.08-10    c61.88-20.49,123.76-40.99,185.66-61.4c3.42-1.13,7.07-1.57,10.62-2.31c1.7-0.35,2.24-0.89,2.3-2.39    c0.07-1.63-0.59-2.63-2.19-2.94c-4.54-0.88-8.78-2.45-12.4-5.38c-9.68-7.84-13.48-17.93-10.46-30.03    c2.99-11.99,11.13-19.09,23.14-21.36c15.57-2.95,30.99,8.26,33.3,23.9c0.24,1.64,0.2,3.35,0.08,5.01    c-0.11,1.53-1.08,2.28-2.55,2.32c-1.48,0.04-2.39-0.63-2.69-2.17c-0.39-1.95-0.54-3.96-1.01-5.89    c-2.49-10.23-11.07-17.22-21.27-17.67c-12.4-0.55-20.85,8.28-23.17,16.08c-3.5,11.72,2.94,27.28,18.71,29.45    c1.07,0.15,2.14,0.29,3.2,0.46c2.18,0.35,3.11,1.43,3.14,3.66c0.02,1.4-0.05,2.8,0.02,4.19c0.08,1.81,0.81,2.83,2.42,2.89    c4.92,0.18,9.47,1.87,14.05,3.35c20.46,6.62,40.9,13.32,61.31,20.09c42.42,14.06,84.82,28.16,127.22,42.27    c7.76,2.58,15.48,5.27,23.24,7.86c1,0.34,1.78,0.83,2.28,1.75C1086.21,475.68,1086.21,476.24,1086.21,476.8z" style="fill: #ffffff;"></path></svg> <svg xmlns="http://www.w3.org/2000/svg" y="284.9001422905579" viewBox="0.2199999988079071 12.350000381469727 218.6199951171875 85.11000061035156" x="178.19005034024536" height="85.11000061035156" width="218.6199951171875" style="overflow: visible;"><g fill="#ffffff" style=""><path d="M54.23 12.58L54.23 12.58Q54.68 12.35 54.80 12.35L54.80 12.35Q55.24 12.35 55.41 12.74Q55.58 13.14 55.24 13.36L55.24 13.36Q54.57 13.81 53.17 14.93Q51.76 16.06 50.19 17.24Q48.62 18.41 47.33 19.26Q46.04 20.10 45.59 20.10L45.59 20.10Q45.14 20.10 43.79 18.58Q42.44 17.07 41.27 15.44Q40.09 13.81 39.75 13.36L39.75 13.36Q39.52 13.14 39.52 13.03L39.52 13.03Q39.52 12.46 40.09 12.46L40.09 12.46Q40.42 12.46 40.54 12.58L40.54 12.58Q42.78 14.15 44.02 15.33Q45.25 16.51 46.04 17.07L46.04 17.07Q46.71 16.73 48.34 15.83Q49.97 14.93 51.71 13.98Q53.45 13.03 54.23 12.58ZM27.62 95.22L27.62 95.22Q25.49 95.22 22.23 94.43Q18.98 93.65 15.44 92.47Q11.90 91.29 8.81 89.83Q5.73 88.37 4.04 87.02L4.04 87.02Q2.69 85.90 1.46 84.21Q0.22 82.53 0.22 80.62L0.22 80.62Q0.22 79.05 1.24 78.21Q2.25 77.36 3.82 77.36L3.82 77.36Q4.38 77.36 5.67 77.65Q6.96 77.93 8.08 78.43Q9.21 78.94 9.21 79.50L9.21 79.50Q9.21 79.95 8.81 80.12Q8.42 80.28 8.08 80.28L8.08 80.28Q7.64 80.28 7.24 80.17Q6.85 80.06 6.51 80.06L6.51 80.06Q5.73 80.06 5.00 80.45Q4.27 80.85 4.27 81.74L4.27 81.74Q4.27 83.65 6.68 85.56Q9.10 87.47 12.46 89.10Q15.83 90.73 19.03 91.74Q22.23 92.75 23.92 92.75L23.92 92.75Q26.39 92.75 28.52 91.29Q30.65 89.83 30.65 87.36L30.65 87.36Q30.65 85.11 29.87 82.36Q29.08 79.61 28.07 76.86Q27.06 74.11 26.16 72.09L26.16 72.09Q24.25 67.26 22.96 61.36Q21.67 55.47 21.67 49.52L21.67 49.52Q21.67 43.34 23.41 37.73Q25.15 32.11 29.31 28.13Q33.46 24.14 40.42 22.91L40.42 22.91Q40.98 22.68 41.49 22.68Q41.99 22.68 42.44 22.68L42.44 22.68Q46.94 22.68 50.08 25.32Q53.22 27.96 54.96 31.95Q56.70 35.93 56.70 39.86L56.70 39.86Q56.70 41.77 56.26 44.35Q55.81 46.94 54.80 49.41Q53.78 51.88 52.16 53.50Q50.53 55.13 48.06 55.13L48.06 55.13Q45.70 55.13 44.58 53.45Q43.45 51.76 43.45 49.63L43.45 49.63Q43.45 47.38 44.24 44.58Q45.03 41.77 46.15 39.08Q47.27 36.38 48.28 34.47L48.28 34.47Q48.40 34.36 48.56 34.08Q48.73 33.80 48.96 33.80L48.96 33.80Q49.18 33.80 49.18 34.36L49.18 34.36L49.18 35.15Q49.18 35.82 48.84 36.38L48.84 36.38Q47.72 38.85 46.60 41.94Q45.48 45.03 45.48 47.83L45.48 47.83Q45.48 49.63 46.32 51.31Q47.16 53.00 48.40 53.00L48.40 53.00Q49.07 53.00 49.80 52.33Q50.53 51.65 51.20 50.08L51.20 50.08Q52.33 47.83 52.83 45.25Q53.34 42.67 53.34 40.20L53.34 40.20Q53.34 37.17 52.16 33.46Q50.98 29.76 48.62 27.12Q46.26 24.48 42.56 24.48L42.56 24.48L41.88 24.48Q40.98 24.48 40.65 24.70L40.65 24.70Q34.92 25.94 31.50 29.87Q28.07 33.80 26.56 39.24Q25.04 44.69 25.04 50.53L25.04 50.53Q25.04 55.92 26.05 61.08Q27.06 66.25 28.63 70.18L28.63 70.18Q29.64 72.42 30.99 76.07Q32.34 79.72 33.41 83.32Q34.47 86.91 34.47 89.27L34.47 89.27Q34.47 92.52 32.51 93.87Q30.54 95.22 27.62 95.22ZM46.49 93.42L46.49 93.42Q45.81 93.42 45.53 92.75Q45.25 92.07 45.25 91.63L45.25 91.63Q45.25 91.06 45.48 90.45Q45.70 89.83 45.81 89.38L45.81 89.38Q45.59 87.36 45.03 85.34Q44.47 83.32 43.90 81.41L43.90 81.41Q42.67 77.36 41.27 73.43Q39.86 69.50 38.51 65.57L38.51 65.57Q38.40 65.24 38.35 64.90Q38.29 64.56 38.29 64.23L38.29 64.23Q38.29 63.22 38.91 62.21Q39.52 61.20 40.65 61.20L40.65 61.20Q41.21 61.20 41.49 61.48Q41.77 61.76 41.99 62.32L41.99 62.32Q42.67 64.12 43.12 66.19Q43.57 68.27 44.02 70.18L44.02 70.18Q44.91 73.88 45.81 77.70Q46.71 81.52 47.27 85.34L47.27 85.34Q48.06 83.32 49.57 79.89Q51.09 76.47 52.94 73.21Q54.80 69.95 56.37 68.72L56.37 68.72Q57.27 68.05 58.28 67.54Q59.29 67.03 60.41 67.03L60.41 67.03Q61.31 67.03 61.98 67.60Q62.66 68.16 62.66 69.06L62.66 69.06Q62.66 69.73 62.09 70.01Q61.53 70.29 60.97 70.29L60.97 70.29Q60.41 70.29 59.85 70.07Q59.29 69.84 58.73 69.84L58.73 69.84Q57.71 69.84 56.87 70.35Q56.03 70.85 55.36 71.64L55.36 71.64Q53.22 74.45 51.26 78.82Q49.29 83.20 48.17 86.46L48.17 86.46Q48.17 86.57 47.95 87.47Q47.72 88.37 47.72 88.48L47.72 88.48L47.72 90.50Q47.72 91.06 47.55 92.24Q47.38 93.42 46.49 93.42ZM76.58 91.63L76.58 91.63Q74.22 91.63 73.77 89.38Q73.32 87.13 73.32 85.34L73.32 85.34Q73.32 82.19 73.60 79.11Q73.88 76.02 74.11 72.87L74.11 72.87Q73.66 74.45 72.82 77.25Q71.98 80.06 70.74 82.98Q69.50 85.90 67.93 87.92Q66.36 89.94 64.34 89.94L64.34 89.94Q62.99 89.94 62.32 88.82Q61.64 87.70 61.48 86.18Q61.31 84.66 61.31 83.77L61.31 83.77Q61.31 78.49 63.44 72.87Q65.57 67.26 68.49 63.10L68.49 63.10Q68.49 61.42 69.79 59.62Q71.08 57.83 72.87 56.37Q74.67 54.91 76.02 54.35L76.02 54.35Q76.69 54.12 77.25 54.12L77.25 54.12Q77.81 54.12 78.09 54.57Q78.38 55.02 78.38 55.58L78.38 55.58Q78.38 56.03 78.26 56.54Q78.15 57.04 77.81 57.38L77.81 57.38Q76.80 58.39 75.85 59.17Q74.89 59.96 73.88 61.20L73.88 61.20Q71.64 63.89 69.22 67.71Q66.81 71.53 65.13 75.62Q63.44 79.72 63.44 83.32L63.44 83.32Q63.44 83.77 63.55 85.06Q63.67 86.35 64.06 87.41Q64.45 88.48 65.24 88.48L65.24 88.48Q66.25 88.48 67.09 87.30Q67.93 86.12 68.38 85.34L68.38 85.34Q69.62 83.09 70.74 79.72Q71.86 76.35 72.76 72.87Q73.66 69.39 74.11 66.92L74.11 66.92Q74.33 66.14 74.45 65.41Q74.56 64.68 74.67 63.89L74.67 63.89Q74.78 63.55 74.78 63.05Q74.78 62.54 74.89 62.09L74.89 62.09Q75.12 61.42 75.91 61.42L75.91 61.42Q76.47 61.42 76.92 61.76Q77.36 62.09 77.36 62.66L77.36 62.66L77.36 62.88Q77.36 66.70 76.86 70.40Q76.35 74.11 76.35 78.04L76.35 78.04Q76.35 80.28 76.47 82.75Q76.58 85.22 77.03 87.58L77.03 87.58Q77.03 87.92 77.25 88.59Q77.48 89.27 78.04 89.27L78.04 89.27Q78.38 89.27 78.77 88.99Q79.16 88.71 79.27 88.59L79.27 88.59Q82.08 86.24 84.10 82.47Q86.12 78.71 87.36 75.34L87.36 75.34Q87.70 74.78 87.92 74.78L87.92 74.78Q88.26 74.78 88.26 75.34L88.26 75.34L88.26 75.79Q87.70 77.70 86.12 80.90Q84.55 84.10 82.70 86.97Q80.85 89.83 79.16 90.84L79.16 90.84Q78.04 91.63 76.58 91.63ZM87.58 91.63L87.58 91.63Q85.90 91.63 85.34 89.77Q84.78 87.92 84.78 86.80L84.78 86.80Q84.78 84.10 85.56 80.51Q86.35 76.92 87.70 73.21Q89.04 69.50 90.78 66.30Q92.52 63.10 94.43 61.20L94.43 61.20Q95.11 60.52 96.06 59.90Q97.01 59.29 98.03 59.29L98.03 59.29Q99.37 59.29 100.16 60.41Q100.94 61.53 100.94 62.77L100.94 62.77Q100.94 63.55 100.38 63.55L100.38 63.55Q99.93 63.55 99.77 63.16Q99.60 62.77 99.04 62.77L99.04 62.77Q97.80 62.77 96.29 64.45Q94.77 66.14 93.53 68.21Q92.30 70.29 91.85 71.30L91.85 71.30Q91.06 72.99 90.05 76.30Q89.04 79.61 88.26 82.92Q87.47 86.24 87.47 88.14L87.47 88.14Q87.47 88.48 87.58 89.04Q87.70 89.60 88.14 89.60L88.14 89.60Q88.93 89.60 89.83 88.48Q90.73 87.36 91.06 86.91L91.06 86.91Q94.32 81.86 96.68 76.19Q99.04 70.52 101.17 64.79L101.17 64.79Q100.83 59.17 100.83 53.56L100.83 53.56Q100.83 49.97 100.89 46.26Q100.94 42.56 101.39 38.96L101.39 38.96Q101.39 38.06 101.96 36.44Q102.52 34.81 103.75 34.81L103.75 34.81Q104.20 34.81 104.54 35.37L104.54 35.37L104.54 35.26Q104.54 34.81 105.10 34.81L105.10 34.81Q107.68 34.81 108.75 36.72Q109.82 38.63 109.82 40.87L109.82 40.87Q109.82 43.90 108.80 47.50Q107.79 51.09 106.45 54.57Q105.10 58.05 103.98 60.97L103.98 60.97Q103.98 61.76 103.98 62.66Q103.98 63.55 104.09 64.34L104.09 64.34Q104.20 66.81 104.31 70.35Q104.43 73.88 104.71 77.31Q104.99 80.73 105.66 83.09L105.66 83.09Q105.77 83.54 106.05 84.27Q106.33 85.00 106.90 85.00L106.90 85.00Q108.02 85.00 109.14 82.98Q110.26 80.96 111.28 78.60Q112.29 76.24 112.62 75.34L112.62 75.34Q112.96 74.78 113.18 74.78L113.18 74.78Q113.63 74.78 113.63 75.34L113.63 75.34Q113.63 75.46 113.58 75.51Q113.52 75.57 113.52 75.79L113.52 75.79Q113.30 76.69 112.57 78.43Q111.84 80.17 110.83 82.14Q109.82 84.10 108.86 85.62Q107.91 87.13 107.12 87.47L107.12 87.47Q106.45 87.70 106.11 87.70L106.11 87.70Q104.99 87.70 104.15 85.95Q103.30 84.21 102.80 81.52Q102.29 78.82 101.96 76.02Q101.62 73.21 101.45 71.02Q101.28 68.83 101.28 68.05L101.28 68.05Q100.61 69.73 99.26 73.10Q97.91 76.47 96.17 80.23Q94.43 83.99 92.69 86.97Q90.95 89.94 89.60 90.84L89.60 90.84Q88.48 91.63 87.58 91.63ZM103.86 57.27L103.86 57.27Q105.10 53.78 106.33 49.07Q107.57 44.35 107.57 40.76L107.57 40.76Q107.57 39.30 107.35 37.95Q107.12 36.61 105.55 36.16L105.55 36.16Q105.21 36.04 105.04 36.72Q104.87 37.39 104.87 37.84L104.87 37.84Q104.54 42.67 104.26 47.55Q103.98 52.44 103.86 57.27ZM112.40 97.46L112.40 97.46Q112.17 97.46 112.06 96.90Q111.95 96.34 111.95 96.23L111.95 96.23Q111.95 95.11 112.51 92.86Q113.07 90.61 113.91 87.98Q114.76 85.34 115.60 83.04Q116.44 80.73 116.89 79.50L116.89 79.50Q115.77 73.55 115.32 67.48Q114.87 61.42 114.87 55.47L114.87 55.47Q114.87 54.46 114.98 52.04Q115.09 49.63 115.43 46.99Q115.77 44.35 116.55 42.50Q117.34 40.65 118.69 40.65L118.69 40.65Q119.36 40.65 119.70 40.87L119.70 40.87Q122.62 42.22 123.46 45.48Q124.30 48.73 124.30 51.65L124.30 51.65Q124.30 55.58 123.46 60.24Q122.62 64.90 121.38 69.39Q120.15 73.88 118.69 77.70L118.69 77.70Q118.91 78.71 119.25 80.73Q119.58 82.75 120.20 84.94Q120.82 87.13 121.77 88.65Q122.73 90.17 124.08 90.17L124.08 90.17Q125.31 90.17 126.04 88.99Q126.77 87.81 127.16 86.35Q127.56 84.89 127.78 84.10L127.78 84.10Q127.89 83.88 128.06 83.54Q128.23 83.20 128.57 83.20L128.57 83.20Q128.90 83.20 128.90 83.65L128.90 83.65L128.90 83.88Q128.90 85.11 128.34 86.97Q127.78 88.82 126.71 90.28Q125.65 91.74 123.85 91.74L123.85 91.74Q121.94 91.74 120.59 89.83Q119.25 87.92 118.46 85.45Q117.68 82.98 117.34 81.52L117.34 81.52Q115.99 85.34 114.87 89.15Q113.75 92.97 112.73 96.90L112.73 96.90Q112.73 97.01 112.68 97.24Q112.62 97.46 112.40 97.46ZM118.35 75.12L118.35 75.12Q120.15 69.84 121.55 63.55Q122.95 57.27 122.95 51.76L122.95 51.76Q122.95 51.09 122.84 49.41Q122.73 47.72 122.28 46.32Q121.83 44.91 120.82 44.91L120.82 44.91Q119.81 44.91 119.36 46.71Q118.91 48.51 118.80 49.18L118.80 49.18Q118.24 53.67 118.12 58.39Q118.01 63.10 118.01 67.60L118.01 67.60Q118.01 71.19 118.35 75.12ZM130.70 90.84L130.70 90.84Q128.79 90.84 127.56 89.72Q126.32 88.59 126.32 86.68L126.32 86.68Q126.32 84.21 127.78 81.13Q129.24 78.04 131.15 75.12Q133.06 72.20 134.52 70.40L134.52 70.40Q133.73 69.84 132.89 68.94Q132.05 68.05 132.05 67.15L132.05 67.15Q132.05 66.47 132.61 66.47L132.61 66.47Q133.17 66.47 134.24 67.43Q135.30 68.38 135.75 68.83L135.75 68.83Q136.54 67.71 137.77 66.19Q139.01 64.68 140.53 63.50Q142.04 62.32 143.50 62.32L143.50 62.32Q145.19 62.32 145.63 63.72Q146.08 65.13 146.08 66.36L146.08 66.36Q146.08 69.50 143.61 70.85L143.61 70.85Q145.41 70.85 147.43 69.95L147.43 69.95Q147.66 69.73 147.99 69.73L147.99 69.73Q148.22 69.73 148.22 69.95L148.22 69.95Q148.22 70.18 148.05 70.29Q147.88 70.40 147.66 70.63L147.66 70.63Q146.53 71.41 144.85 71.47Q143.16 71.53 141.82 71.53L141.82 71.53Q141.37 71.53 140.75 71.64Q140.13 71.75 139.57 71.75L139.57 71.75Q138.67 71.75 137.83 71.64Q136.99 71.53 136.09 71.19L136.09 71.19Q135.08 72.76 133.62 75.40Q132.16 78.04 131.09 80.79Q130.03 83.54 130.03 85.56L130.03 85.56Q130.03 88.26 132.27 88.26L132.27 88.26Q134.41 88.26 137.61 86.52Q140.81 84.78 143.89 82.53Q146.98 80.28 148.55 78.82L148.55 78.82Q148.78 78.71 148.95 78.60Q149.12 78.49 149.23 78.49L149.23 78.49Q149.56 78.49 149.56 78.82L149.56 78.82Q149.56 79.05 149.23 79.39L149.23 79.39Q147.32 81.29 144.01 84.05Q140.69 86.80 137.10 88.82Q133.51 90.84 130.70 90.84ZM139.35 70.40L139.35 70.40Q141.03 70.40 141.82 69.28Q142.60 68.16 142.60 66.59L142.60 66.59Q142.60 66.25 142.49 65.74Q142.38 65.24 141.82 65.24L141.82 65.24Q141.14 65.24 140.19 66.14Q139.23 67.03 138.39 68.05Q137.55 69.06 137.10 69.62L137.10 69.62Q137.33 69.73 138.22 70.07Q139.12 70.40 139.35 70.40ZM147.21 89.94L147.21 89.94Q146.42 89.94 145.86 89.21Q145.30 88.48 145.30 87.81L145.30 87.81Q145.30 87.36 145.52 86.68L145.52 86.68Q146.53 84.66 147.21 81.74Q147.88 78.82 148.22 75.79Q148.55 72.76 148.55 70.63L148.55 70.63Q148.55 68.49 148.16 65.97Q147.77 63.44 145.97 62.09L145.97 62.09Q145.52 61.87 145.52 61.64L145.52 61.64Q145.52 61.42 145.75 61.42L145.75 61.42Q146.08 61.42 146.31 61.64L146.31 61.64Q148.33 62.66 149.40 65.01Q150.46 67.37 150.91 70.01Q151.36 72.65 151.36 74.78L151.36 74.78Q151.36 76.92 150.97 79.44Q150.58 81.97 149.56 83.99L149.56 83.99Q152.71 81.86 155.24 78.66Q157.76 75.46 159.78 72.31L159.78 72.31Q160.34 71.41 161.47 70.35Q162.59 69.28 163.71 69.28L163.71 69.28Q164.50 69.28 164.50 70.29L164.50 70.29Q164.50 70.85 164.27 71.30L164.27 71.30Q162.93 75.79 162.93 81.07L162.93 81.07Q162.93 82.08 163.10 83.54Q163.26 85.00 163.88 86.12Q164.50 87.25 165.96 87.25L165.96 87.25Q166.74 87.25 167.64 86.85Q168.54 86.46 168.99 85.79L168.99 85.79Q169.21 85.56 169.44 85.56L169.44 85.56Q169.55 85.56 169.55 85.79L169.55 85.79Q169.55 86.91 167.98 87.47Q166.41 88.03 165.51 88.03L165.51 88.03Q162.59 88.03 161.02 85.34Q159.45 82.64 159.45 80.06L159.45 80.06Q159.45 79.05 159.73 78.04Q160.01 77.03 160.01 76.02L160.01 76.02Q160.01 75.79 159.95 75.34Q159.89 74.89 159.56 74.89L159.56 74.89Q159.33 74.89 157.87 76.58Q156.41 78.26 154.51 80.62Q152.60 82.98 151.08 85.00Q149.56 87.02 149.23 87.58L149.23 87.58Q148.89 88.37 148.55 89.15Q148.22 89.94 147.21 89.94ZM166.63 92.07L166.63 92.07Q166.18 92.07 166.07 90.73Q165.96 89.38 165.96 89.15L165.96 89.15Q165.96 85.11 168.04 79.50Q170.11 73.88 173.14 67.93Q176.18 61.98 179.26 56.54Q182.35 51.09 184.49 47.38L184.49 47.38Q184.04 47.72 182.86 48.28Q181.68 48.84 181.23 48.84L181.23 48.84Q180.89 48.84 180.89 48.51L180.89 48.51Q180.89 48.40 181.34 47.95L181.34 47.95Q182.58 47.50 183.92 46.49L183.92 46.49Q186.51 44.58 188.47 42.16Q190.44 39.75 193.02 38.06L193.02 38.06Q193.69 37.62 194.03 37.62L194.03 37.62Q194.93 37.62 194.93 38.74L194.93 38.74Q194.93 39.52 194.48 40.42Q194.03 41.32 193.47 41.88L193.47 41.88Q189.99 45.59 185.95 51.20Q181.90 56.82 178.20 63.22Q174.49 69.62 171.74 75.79Q168.99 81.97 167.98 87.02L167.98 87.02Q170.11 84.21 172.70 82.08Q175.28 79.95 177.97 77.81L177.97 77.81Q177.75 76.69 177.52 75.57Q177.30 74.45 177.30 73.43L177.30 73.43Q177.30 73.32 177.52 73.32L177.52 73.32Q178.09 73.32 179.26 74.16Q180.44 75.01 180.44 75.79L180.44 75.79Q183.03 73.88 185.61 72.14Q188.19 70.40 190.89 68.83L190.89 68.83Q190.32 68.94 188.81 69.39Q187.29 69.84 185.83 70.23Q184.37 70.63 183.81 70.63L183.81 70.63Q183.70 70.63 183.47 70.57Q183.25 70.52 183.25 70.29L183.25 70.29Q183.25 70.07 183.81 69.84L183.81 69.84Q184.37 69.73 184.93 69.62Q185.50 69.50 185.95 69.39L185.95 69.39Q187.52 68.83 189.76 68.10Q192.01 67.37 193.58 67.37L193.58 67.37Q194.03 67.37 194.14 67.82Q194.25 68.27 194.25 68.61L194.25 68.61Q194.25 69.17 194.03 69.95Q193.81 70.74 193.24 71.19L193.24 71.19Q191.00 72.99 187.18 74.16Q183.36 75.34 180.56 77.14L180.56 77.14Q180.67 78.15 180.89 80.34Q181.12 82.53 181.68 84.83Q182.24 87.13 183.25 88.76Q184.26 90.39 185.72 90.39L185.72 90.39Q186.73 90.39 187.52 89.66Q188.30 88.93 188.75 88.14L188.75 88.14Q188.75 87.81 188.98 87.81L188.98 87.81Q189.20 87.81 189.20 88.14L189.20 88.14Q189.20 89.27 188.02 90.33Q186.84 91.40 185.72 91.40L185.72 91.40Q183.92 91.40 182.63 90.00Q181.34 88.59 180.50 86.52Q179.66 84.44 179.10 82.42Q178.53 80.40 178.31 79.16L178.31 79.16Q175.73 81.07 172.58 84.10Q169.44 87.13 167.53 89.72L167.53 89.72Q167.53 90.17 167.42 91.12Q167.31 92.07 166.63 92.07ZM207.17 91.63L207.17 91.63Q204.81 91.63 204.36 89.38Q203.91 87.13 203.91 85.34L203.91 85.34Q203.91 82.19 204.19 79.11Q204.47 76.02 204.70 72.87L204.70 72.87Q204.25 74.45 203.41 77.25Q202.56 80.06 201.33 82.98Q200.09 85.90 198.52 87.92Q196.95 89.94 194.93 89.94L194.93 89.94Q193.58 89.94 192.91 88.82Q192.23 87.70 192.06 86.18Q191.90 84.66 191.90 83.77L191.90 83.77Q191.90 78.49 194.03 72.87Q196.16 67.26 199.08 63.10L199.08 63.10Q199.08 61.42 200.37 59.62Q201.67 57.83 203.46 56.37Q205.26 54.91 206.61 54.35L206.61 54.35Q207.28 54.12 207.84 54.12L207.84 54.12Q208.40 54.12 208.68 54.57Q208.96 55.02 208.96 55.58L208.96 55.58Q208.96 56.03 208.85 56.54Q208.74 57.04 208.40 57.38L208.40 57.38Q207.39 58.39 206.44 59.17Q205.48 59.96 204.47 61.20L204.47 61.20Q202.23 63.89 199.81 67.71Q197.40 71.53 195.71 75.62Q194.03 79.72 194.03 83.32L194.03 83.32Q194.03 83.77 194.14 85.06Q194.25 86.35 194.65 87.41Q195.04 88.48 195.83 88.48L195.83 88.48Q196.84 88.48 197.68 87.30Q198.52 86.12 198.97 85.34L198.97 85.34Q200.21 83.09 201.33 79.72Q202.45 76.35 203.35 72.87Q204.25 69.39 204.70 66.92L204.70 66.92Q204.92 66.14 205.03 65.41Q205.15 64.68 205.26 63.89L205.26 63.89Q205.37 63.55 205.37 63.05Q205.37 62.54 205.48 62.09L205.48 62.09Q205.71 61.42 206.49 61.42L206.49 61.42Q207.05 61.42 207.50 61.76Q207.95 62.09 207.95 62.66L207.95 62.66L207.95 62.88Q207.95 66.70 207.45 70.40Q206.94 74.11 206.94 78.04L206.94 78.04Q206.94 80.28 207.05 82.75Q207.17 85.22 207.62 87.58L207.62 87.58Q207.62 87.92 207.84 88.59Q208.07 89.27 208.63 89.27L208.63 89.27Q208.96 89.27 209.36 88.99Q209.75 88.71 209.86 88.59L209.86 88.59Q212.67 86.24 214.69 82.47Q216.71 78.71 217.95 75.34L217.95 75.34Q218.28 74.78 218.51 74.78L218.51 74.78Q218.84 74.78 218.84 75.34L218.84 75.34L218.84 75.79Q218.28 77.70 216.71 80.90Q215.14 84.10 213.29 86.97Q211.43 89.83 209.75 90.84L209.75 90.84Q208.63 91.63 207.17 91.63Z" transform="translate(0, 0)"></path></g></svg></svg>